<svg width="207" height="58" viewBox="0 0 207 58" fill="none" xmlns="http://www.w3.org/2000/svg">
<path d="M26.92 35.9777C26.3595 34.1713 25.5107 32.6026 24.3897 31.2715C23.2767 29.9326 21.8915 28.8868 20.2501 28.1262C18.6166 27.3735 16.7189 26.9932 14.557 26.9932C13.3479 26.9932 12.2669 27.112 11.2821 27.3577C10.3132 27.6112 9.44842 27.9281 8.70376 28.3163C7.95109 28.7045 7.32653 29.1244 6.81407 29.576C6.2856 30.0276 6.2856 30.0276 6.2856 30.0276C5.91727 30.4555 5.605 29.9801 5.605 28.9739V18.3098C5.605 17.3036 4.77225 16.4875 3.77136 16.4875H1.84164C0.832742 16.4875 0 17.3036 0 18.3098C0 18.3098 0 42.4348 0 50.7458C0 54.5805 5.32475 57.1633 11.5143 57.1633C13.9164 57.1633 16.1104 56.783 18.1121 56.0224C20.0979 55.2697 21.8194 54.2081 23.2447 52.8533C24.678 51.4906 25.791 49.8743 26.5757 47.9887C27.3524 46.103 27.7607 44.0193 27.7607 41.7693C27.7607 39.7093 27.4805 37.7841 26.92 35.9777ZM21.2349 46.103C20.7385 47.3945 20.0259 48.5037 19.105 49.4306C18.1682 50.3497 17.0712 51.0707 15.7901 51.5856C11.266 53.4158 5.58898 51.7124 5.58898 48.7096V40.1609C5.58898 39.0913 5.75713 38.0535 6.09343 37.0552C6.42172 36.049 6.92617 35.1696 7.60678 34.401C8.28739 33.6404 9.12814 33.0304 10.137 32.555C11.1459 32.0876 12.331 31.8499 13.6922 31.8499C15.1815 31.8499 16.4306 32.1272 17.4636 32.6739C18.4885 33.2285 19.3452 33.9653 20.0259 34.8923C20.6985 35.8113 21.1949 36.8809 21.5152 38.0931C21.8195 39.3053 21.9716 40.565 21.9716 41.8802C21.9716 43.4093 21.7234 44.8195 21.2349 46.103Z" fill="#E02126"/>
<path d="M34.8068 35.3194C34.8068 34.3132 34.8068 32.6732 34.8068 31.6749C34.8068 31.6749 34.8068 31.2708 34.8068 30.3835C34.8068 29.8289 34.7988 29.2664 34.7827 28.6801C34.7667 28.0779 35.3192 27.6422 36.144 27.6422C37.1609 27.6422 38.458 28.3077 39.0425 29.1396C39.0425 29.1396 40.2196 30.8113 40.9883 30.3201C43.4064 28.7672 46.1289 27.2144 49.7401 27.2144C50.3646 27.2144 50.9332 27.254 51.4536 27.3332C51.9741 27.4203 52.8228 27.9829 52.8228 28.6484C52.8228 29.3218 52.8228 31.1758 52.8228 31.1758C52.8228 32.174 52.0061 32.8396 51.0132 32.6494C51.0132 32.6494 49.9643 32.4513 48.8033 32.4513C47.6022 32.4513 46.4892 32.6811 45.4723 33.1248C44.4554 33.5764 43.5746 34.2023 42.8219 35.0025C42.0773 35.8027 41.4847 36.7376 41.0523 37.8072C40.6119 38.8767 40.3877 40.0018 40.3877 41.1902V54.453C40.3877 55.4513 39.563 56.2752 38.5461 56.2752H36.6324C35.6155 56.2752 34.7908 55.4513 34.7908 54.453V35.3194H34.8068Z" fill="#E02126"/>
<path d="M98.1434 27.6421H95.6052C94.5803 27.6421 93.4513 28.4027 93.0669 29.3376L85.4281 48.3127C85.2519 48.7643 84.9717 48.9941 84.6914 49.0099C84.4112 48.9941 84.1309 48.7643 83.9548 48.3127L76.316 29.3376C75.9316 28.4027 74.8026 27.6421 73.7777 27.6421H71.2314C70.2145 27.6421 69.7181 28.3948 70.1184 29.3217L81.0802 54.6114C81.4806 55.5304 82.6416 56.2831 83.6505 56.2831H85.7244C86.7333 56.2831 87.8863 55.5304 88.2947 54.6114L99.2564 29.3217C99.6648 28.3948 99.1684 27.6421 98.1434 27.6421Z" fill="#E02126"/>
<path d="M69.4058 23.2211H72.0642C73.041 23.2211 73.5855 22.5001 73.2732 21.7237C72.961 20.9472 72.2804 19.2201 71.856 18.206C71.4396 17.1839 70.2866 16.4946 69.2457 16.4946H66.5793C65.5784 16.4946 65.0179 17.3028 65.3462 18.0792C65.6745 18.8477 66.4432 20.6858 66.8195 21.5573C67.2038 22.4209 68.3809 23.2211 69.4058 23.2211Z" fill="#E02126"/>
<path d="M138.972 29.4726C136.834 27.69 133.895 26.7947 130.164 26.7947C128.587 26.7947 127.201 26.9056 125.992 27.1354C124.791 27.3572 123.702 27.6424 122.757 27.991C121.797 28.3476 120.972 28.7199 120.267 29.1319C119.563 29.5518 119.563 29.5518 119.563 29.5518C118.962 30.0034 118.93 31.0492 119.506 31.8732L120.251 32.9349C120.619 33.4182 121.268 33.7668 122.581 33.1092C123.11 32.8398 123.71 32.5942 124.319 32.309C125.6 31.7147 127.842 31.4137 130.044 31.4137C132.286 31.4137 133.871 31.8732 135.064 32.7923C136.257 33.7034 136.45 35.5573 136.45 35.5573C136.554 36.5318 136.53 37.7915 136.53 38.362C131.549 37.5222 124.855 36.9597 120.363 40.7705C115.623 44.7874 115.823 53.6847 124.055 56.2913C126.048 56.9252 128.25 57.1628 130.652 57.0044C138.884 56.4815 142.167 52.3537 142.167 47.8218C142.167 43.7495 142.167 37.0785 142.167 37.0785C142.175 33.7984 141.11 31.2631 138.972 29.4726ZM136.546 48.1546C136.281 51.1732 131.349 53.4708 126.305 51.704C122.365 50.3492 122.509 47.4812 122.934 46.0392C123.142 45.3578 123.51 44.7478 124.055 44.1932C126.096 42.0936 132.814 41.6658 135.457 42.7671C135.937 42.9651 136.554 43.4167 136.554 44.9855C136.546 44.9855 136.554 47.9328 136.546 48.1546Z" fill="#E02126"/>
<path d="M58.7327 29.4643C58.7327 28.4661 59.5654 27.6421 60.5743 27.6421H62.4881C63.513 27.6421 64.3377 28.4661 64.3377 29.4643V54.4608C64.3377 55.4591 63.505 56.2831 62.4881 56.2831H60.5743C59.5654 56.2831 58.7327 55.4591 58.7327 54.4608V29.4643Z" fill="#E02126"/>
<path d="M105.174 29.4643C105.174 28.4661 105.999 27.6421 107.016 27.6421H108.937C109.946 27.6421 110.779 28.4661 110.779 29.4643V54.4608C110.779 55.4591 109.954 56.2831 108.937 56.2831H107.016C105.999 56.2831 105.174 55.4591 105.174 54.4608V29.4643Z" fill="#E02126"/>
<path fill-rule="evenodd" clip-rule="evenodd" d="M149.702 57.1631H198.865C203.029 57.1631 206.4 53.8197 206.4 49.7077V0H149.702V57.1631ZM155.443 48.4079C155.059 47.4968 154.858 46.4906 154.858 45.3814C154.858 44.3752 154.994 43.4165 155.283 42.5054C155.563 41.6022 155.979 40.8099 156.524 40.1206C157.068 39.4314 157.749 38.8768 158.558 38.4569C159.358 38.0449 160.295 37.8072 161.352 37.7438C161.945 37.7121 162.481 37.7359 162.962 37.831C163.434 37.9339 163.858 38.0607 164.227 38.235C164.595 38.4093 164.899 38.5995 165.156 38.8055L165.412 39.0115C165.596 39.2174 165.748 38.9718 165.748 38.4806V33.4734C165.748 32.9822 166.156 32.5781 166.653 32.5781H167.598C168.094 32.5781 168.502 32.9822 168.502 33.4734V49.0259C168.502 50.9115 165.884 52.3218 162.841 52.4961C161.656 52.5595 160.583 52.4327 159.599 52.1158C158.622 51.8068 157.781 51.3314 157.076 50.7055C156.38 50.0796 155.827 49.3111 155.443 48.4079ZM157.925 43.4007C157.773 44.0107 157.701 44.6287 157.701 45.2784C157.701 46.0311 157.821 46.7124 158.053 47.3146C158.301 47.9405 158.646 48.4634 159.102 48.8912C159.559 49.319 160.103 49.6439 160.728 49.8578C162.946 50.6263 165.74 49.6359 165.74 48.1623V43.9632C165.74 43.4403 165.652 42.9332 165.492 42.45C165.332 41.9667 165.083 41.5468 164.747 41.1902C164.419 40.8337 164.002 40.5564 163.506 40.3504C163.01 40.1523 162.425 40.0652 161.76 40.1048C161.032 40.1523 160.415 40.3187 159.911 40.6198C159.414 40.9208 158.99 41.3091 158.654 41.7844C158.325 42.2598 158.077 42.7986 157.925 43.4007ZM198.961 37.9748H190.073C189.641 37.9748 189.489 38.3788 189.489 38.8067V39.6069C189.489 40.0347 189.641 40.4942 190.073 40.4942H195.63C195.91 40.4942 196.079 40.7557 195.91 40.9855L188.848 50.4928C188.336 51.1821 188.84 52.1091 189.705 52.1091H199.578C200.01 52.1091 200.202 51.808 200.202 51.3723V50.5721C200.202 50.1442 200.01 49.5817 199.578 49.5817H193.036C192.756 49.5817 192.588 49.3678 192.756 49.146L199.818 39.6148C200.33 38.9255 199.826 37.9748 198.961 37.9748ZM183.828 51.6098C184.221 51.4593 184.421 51.0156 184.237 50.6353L184.02 49.534C183.876 49.225 183.524 49.0587 183.188 49.1537C182.283 49.3993 180.089 49.7083 179.192 49.7163C177.799 49.74 176.654 49.2726 176.117 48.6546C175.709 48.1475 175.485 47.3949 175.485 46.2381H183.212C184.349 46.2381 185.269 45.4221 185.269 44.408V43.0849C185.269 41.4528 184.741 40.0425 183.604 39.0284C182.467 37.9826 181.034 37.4517 179.168 37.4517C177.334 37.4517 175.781 37.9747 174.612 39.0125C173.475 40.0267 173.003 41.429 173.003 43.0611V46.6026C173.003 48.2664 173.475 49.6687 174.612 50.6828C175.781 51.7207 177.334 52.2753 179.168 52.2753C180.585 52.2753 182.427 52.1169 183.828 51.6098ZM182.835 43.3542C182.835 43.6474 182.635 43.9088 182.371 43.9088L175.925 43.9009C175.741 43.9009 175.597 43.7187 175.597 43.5127C175.597 41.1517 176.686 39.7731 179.296 39.7731C181.674 39.7731 182.835 40.9299 182.835 43.3542Z" fill="#E02126"/>
</svg>
