<svg width="44" height="8" viewBox="0 0 44 8" fill="none" xmlns="http://www.w3.org/2000/svg">
<path d="M0 0.942504C0 0.701183 0.0967162 0.459863 0.292763 0.277642C0.682241 -0.0892639 1.31482 -0.0892639 1.70691 0.277642L7.00016 5.26411L12.2934 0.275179C12.6829 -0.0917264 13.3155 -0.0917264 13.7076 0.275179L19.0008 5.26165L24.2941 0.275179C24.6835 -0.0917264 25.3161 -0.0917264 25.7082 0.275179L31.0015 5.26165L36.2947 0.275179C36.6842 -0.0917264 37.3194 -0.0917264 37.7089 0.275179L43.7079 5.92651C44.0974 6.29341 44.0974 6.89179 43.7079 7.2587C43.3184 7.6256 42.6858 7.6256 42.2937 7.2587L37.0005 2.27469L31.7072 7.2587C31.3178 7.6256 30.6852 7.6256 30.2931 7.2587L24.9998 2.27469L19.7066 7.2587C19.3171 7.6256 18.6819 7.6256 18.2924 7.2587L12.9992 2.27469L7.70593 7.2587C7.31645 7.6256 6.68126 7.6256 6.29178 7.2587L0.292763 1.60737C0.0967162 1.42268 0 1.18136 0 0.942504Z" fill="#E02126"/>
</svg>
