<svg width="31" height="31" viewBox="0 0 31 31" fill="none" xmlns="http://www.w3.org/2000/svg">
<path d="M26.5308 3.09998H4.46917C3.71355 3.09998 3.10001 3.71352 3.10001 4.46914V26.5308C3.10001 27.2864 3.71355 27.9 4.46917 27.9H15.5V18.0833H12.5356V14.4666H15.5V11.7929C15.5 8.58956 17.7217 6.84581 20.5827 6.84581C21.9519 6.84581 23.4244 6.94914 23.7667 6.99435V10.3398H21.4869C19.9304 10.3398 19.6333 11.076 19.6333 12.161V14.4666H23.3404L22.856 18.0833H19.6333V27.9H26.5308C27.2865 27.9 27.9 27.2864 27.9 26.5308V4.46914C27.9 3.71352 27.2865 3.09998 26.5308 3.09998Z" fill="white"/>
</svg>
