<svg width="32" height="31" viewBox="0 0 32 31" fill="none" xmlns="http://www.w3.org/2000/svg">
<path d="M28.239 10.3081C28.239 8.12809 26.6355 6.37441 24.6542 6.37441C21.9703 6.24846 19.2332 6.20001 16.438 6.20001H15.566C12.7756 6.20001 10.0337 6.24846 7.34989 6.37441C5.37337 6.37441 3.76986 8.13778 3.76986 10.3178C3.64875 12.0424 3.59546 13.767 3.60031 15.4916C3.59546 17.2162 3.64875 18.9408 3.76502 20.6703C3.76502 22.8503 5.36852 24.6185 7.34504 24.6185C10.1645 24.7493 13.0566 24.8074 15.9972 24.8026C18.9426 24.8123 21.825 24.7541 24.6493 24.6185C26.6307 24.6185 28.2342 22.8503 28.2342 20.6703C28.3504 18.9408 28.4037 17.2162 28.3989 15.4868C28.4086 13.7622 28.3553 12.0375 28.239 10.3081ZM13.6283 20.244V10.7247L20.6527 15.4819L13.6283 20.244Z" fill="white"/>
</svg>
