<svg width="32" height="31" viewBox="0 0 32 31" fill="none" xmlns="http://www.w3.org/2000/svg">
<path d="M21.1667 5.16664C22.5358 5.16664 23.834 5.70914 24.8156 6.68435C25.7973 7.65956 26.3333 8.96414 26.3333 10.3333V20.6666C26.3333 22.0358 25.7908 23.3339 24.8156 24.3156C23.8404 25.2973 22.5358 25.8333 21.1667 25.8333H10.8333C9.46417 25.8333 8.16605 25.2908 7.18438 24.3156C6.20271 23.3404 5.66667 22.0358 5.66667 20.6666V10.3333C5.66667 8.96414 6.20917 7.66602 7.18438 6.68435C8.15959 5.70268 9.46417 5.16664 10.8333 5.16664H21.1667ZM21.1667 3.09998H10.8333C6.85501 3.09998 3.60001 6.35498 3.60001 10.3333V20.6666C3.60001 24.645 6.85501 27.9 10.8333 27.9H21.1667C25.145 27.9 28.4 24.645 28.4 20.6666V10.3333C28.4 6.35498 25.145 3.09998 21.1667 3.09998Z" fill="white"/>
<path d="M22.7166 10.3333C21.8576 10.3333 21.1666 9.64223 21.1666 8.78328C21.1666 7.92432 21.8576 7.23328 22.7166 7.23328C23.5691 7.23328 24.2666 7.92432 24.2666 8.78328C24.2666 9.64223 23.5691 10.3333 22.7166 10.3333ZM15.9999 11.3666C18.2797 11.3666 20.1332 13.2202 20.1332 15.4999C20.1332 17.7797 18.2797 19.6333 15.9999 19.6333C13.7201 19.6333 11.8666 17.7797 11.8666 15.4999C11.8666 13.2202 13.7201 11.3666 15.9999 11.3666ZM15.9999 9.29994C12.577 9.29994 9.7999 12.077 9.7999 15.4999C9.7999 18.9229 12.577 21.6999 15.9999 21.6999C19.4228 21.6999 22.1999 18.9229 22.1999 15.4999C22.1999 12.077 19.4228 9.29994 15.9999 9.29994Z" fill="white"/>
</svg>
