<svg width="31" height="31" viewBox="0 0 31 31" fill="none" xmlns="http://www.w3.org/2000/svg">
<path d="M25.9167 3.09998H5.21889C4.08839 3.09998 3.10001 3.91394 3.10001 5.03152V25.7746C3.10001 26.8986 4.08839 27.8999 5.21889 27.8999H25.9103C27.0473 27.8999 27.9 26.8922 27.9 25.7746V5.03152C27.9064 3.91394 27.0473 3.09998 25.9167 3.09998ZM10.7874 23.772H7.23441V12.7254H10.7874V23.772ZM9.13365 11.0458H9.10781C7.97085 11.0458 7.23441 10.1995 7.23441 9.14008C7.23441 8.06126 7.99023 7.23438 9.15303 7.23438C10.3158 7.23438 11.0264 8.0548 11.0523 9.14008C11.0523 10.1995 10.3158 11.0458 9.13365 11.0458ZM23.772 23.772H20.219V17.7319C20.219 16.2849 19.7022 15.2965 18.4167 15.2965C17.4348 15.2965 16.8534 15.9619 16.595 16.6079C16.4981 16.8404 16.4722 17.157 16.4722 17.48V23.772H12.9192V12.7254H16.4722V14.2629C16.989 13.5264 17.7965 12.467 19.6764 12.467C22.0084 12.467 23.772 14.0045 23.772 17.3185V23.772Z" fill="white"/>
</svg>
