<svg width="70" height="20" viewBox="0 0 70 20" fill="none" xmlns="http://www.w3.org/2000/svg">
<path d="M9.12984 12.5877C8.93975 11.9557 8.6519 11.4068 8.27171 10.9411C7.89425 10.4726 7.42445 10.1067 6.86775 9.84063C6.31377 9.57729 5.67017 9.44423 4.93696 9.44423C4.5269 9.44423 4.1603 9.48581 3.82628 9.57174C3.49769 9.66045 3.20441 9.77133 2.95186 9.90715C2.69659 10.043 2.48477 10.1899 2.31097 10.3479C2.13175 10.5059 2.13175 10.5059 2.13175 10.5059C2.00683 10.6556 1.90092 10.4893 1.90092 10.1372V6.40612C1.90092 6.05407 1.6185 5.76855 1.27905 5.76855H0.624588C0.282422 5.76855 0 6.05407 0 6.40612C0 6.40612 0 14.8469 0 17.7547C0 19.0963 1.80587 20 3.90503 20C4.71971 20 5.46379 19.867 6.14268 19.6008C6.81615 19.3375 7.40001 18.9661 7.88338 18.492C8.36948 18.0153 8.74694 17.4498 9.01307 16.79C9.27649 16.1303 9.41498 15.4013 9.41498 14.614C9.41498 13.8933 9.31993 13.2197 9.12984 12.5877ZM7.20177 16.1303C7.0334 16.5821 6.79171 16.9702 6.47942 17.2945C6.16169 17.6161 5.78966 17.8683 5.35516 18.0485C3.82085 18.6889 1.89549 18.0929 1.89549 17.0423V14.0513C1.89549 13.6771 1.95252 13.3139 2.06657 12.9647C2.17791 12.6126 2.34899 12.3049 2.57982 12.0361C2.81064 11.7699 3.09578 11.5565 3.43795 11.3902C3.78011 11.2266 4.18202 11.1435 4.64367 11.1435C5.14878 11.1435 5.57241 11.2405 5.92272 11.4318C6.27032 11.6258 6.56089 11.8836 6.79171 12.2079C7.01982 12.5295 7.18819 12.9037 7.29681 13.3278C7.40001 13.7519 7.4516 14.1927 7.4516 14.6528C7.4516 15.1878 7.36742 15.6812 7.20177 16.1303Z" fill="#E02126"/>
<path d="M11.8046 12.3575C11.8046 12.0054 11.8046 11.4316 11.8046 11.0824C11.8046 11.0824 11.8046 10.941 11.8046 10.6305C11.8046 10.4365 11.8019 10.2397 11.7965 10.0345C11.7911 9.82388 11.9784 9.67142 12.2582 9.67142C12.603 9.67142 13.043 9.90426 13.2412 10.1953C13.2412 10.1953 13.6404 10.7802 13.9011 10.6084C14.7212 10.065 15.6445 9.52173 16.8692 9.52173C17.0811 9.52173 17.2739 9.53559 17.4504 9.56331C17.6269 9.5938 17.9147 9.79061 17.9147 10.0235C17.9147 10.2591 17.9147 10.9077 17.9147 10.9077C17.9147 11.257 17.6378 11.4898 17.301 11.4233C17.301 11.4233 16.9453 11.354 16.5515 11.354C16.1442 11.354 15.7667 11.4344 15.4218 11.5896C15.0769 11.7476 14.7782 11.9666 14.523 12.2466C14.2704 12.5266 14.0695 12.8537 13.9228 13.2279C13.7735 13.6021 13.6974 13.9957 13.6974 14.4115V19.0519C13.6974 19.4011 13.4177 19.6894 13.0728 19.6894H12.4238C12.0789 19.6894 11.7992 19.4011 11.7992 19.0519V12.3575H11.8046Z" fill="#E02126"/>
<path d="M33.2851 9.67163H32.4243C32.0767 9.67163 31.6938 9.93774 31.5634 10.2648L28.9727 16.9038C28.913 17.0618 28.8179 17.1422 28.7229 17.1477C28.6279 17.1422 28.5328 17.0618 28.4731 16.9038L25.8824 10.2648C25.752 9.93774 25.3691 9.67163 25.0215 9.67163H24.158C23.8131 9.67163 23.6447 9.93497 23.7805 10.2593L27.4982 19.1075C27.6339 19.4291 28.0277 19.6924 28.3699 19.6924H29.0732C29.4154 19.6924 29.8064 19.4291 29.9449 19.1075L33.6626 10.2593C33.8011 9.93497 33.6327 9.67163 33.2851 9.67163Z" fill="#E02126"/>
<path d="M23.5388 8.12467H24.4404C24.7717 8.12467 24.9564 7.87242 24.8504 7.60076C24.7445 7.32911 24.5137 6.72481 24.3698 6.36999C24.2286 6.0124 23.8375 5.77124 23.4845 5.77124H22.5802C22.2408 5.77124 22.0507 6.05398 22.162 6.32564C22.2733 6.59453 22.534 7.23763 22.6617 7.54255C22.792 7.8447 23.1912 8.12467 23.5388 8.12467Z" fill="#E02126"/>
<path d="M47.1319 10.3119C46.4069 9.68824 45.4102 9.375 44.1448 9.375C43.6098 9.375 43.14 9.41381 42.7299 9.4942C42.3226 9.57181 41.9533 9.6716 41.6328 9.79357C41.307 9.91831 41.0273 10.0486 40.7883 10.1927C40.5493 10.3397 40.5493 10.3397 40.5493 10.3397C40.3456 10.4977 40.3348 10.8636 40.5303 11.1519L40.7829 11.5233C40.9078 11.6924 41.1277 11.8144 41.5731 11.5843C41.7523 11.49 41.956 11.4041 42.1624 11.3043C42.5969 11.0964 43.3572 10.9911 44.104 10.9911C44.8644 10.9911 45.4021 11.1519 45.8067 11.4734C46.2113 11.7922 46.2765 12.4408 46.2765 12.4408C46.3118 12.7818 46.3037 13.2225 46.3037 13.4221C44.6146 13.1283 42.3443 12.9315 40.8209 14.2648C39.2132 15.6702 39.2811 18.7832 42.0728 19.6952C42.7489 19.9169 43.4957 20.0001 44.3104 19.9446C47.1021 19.7617 48.2155 18.3175 48.2155 16.7319C48.2155 15.3071 48.2155 12.9731 48.2155 12.9731C48.2182 11.8254 47.857 10.9384 47.1319 10.3119ZM46.3091 16.8483C46.2195 17.9044 44.5467 18.7083 42.8359 18.0902C41.4998 17.6162 41.5487 16.6127 41.6926 16.1082C41.7632 15.8698 41.8881 15.6564 42.0728 15.4623C42.7652 14.7277 45.0436 14.578 45.9398 14.9634C46.1027 15.0327 46.3118 15.1907 46.3118 15.7395C46.3091 15.7395 46.3118 16.7707 46.3091 16.8483Z" fill="#E02126"/>
<path d="M19.9189 10.3092C19.9189 9.95992 20.2014 9.67163 20.5435 9.67163H21.1926C21.5402 9.67163 21.8199 9.95992 21.8199 10.3092V19.0549C21.8199 19.4041 21.5374 19.6924 21.1926 19.6924H20.5435C20.2014 19.6924 19.9189 19.4041 19.9189 19.0549V10.3092Z" fill="#E02126"/>
<path d="M35.6694 10.3092C35.6694 9.95992 35.9491 9.67163 36.294 9.67163H36.9458C37.2879 9.67163 37.5704 9.95992 37.5704 10.3092V19.0549C37.5704 19.4041 37.2907 19.6924 36.9458 19.6924H36.294C35.9491 19.6924 35.6694 19.4041 35.6694 19.0549V10.3092Z" fill="#E02126"/>
<path fill-rule="evenodd" clip-rule="evenodd" d="M50.7708 20H67.4446C68.8567 20 70 18.8302 70 17.3915V0H50.7708V20ZM52.7179 16.9369C52.5875 16.6182 52.5196 16.2661 52.5196 15.878C52.5196 15.526 52.5658 15.1906 52.6635 14.8718C52.7586 14.5558 52.8998 14.2786 53.0845 14.0374C53.2691 13.7963 53.5 13.6022 53.7742 13.4553C54.0458 13.3112 54.3635 13.228 54.722 13.2058C54.9229 13.1947 55.1049 13.203 55.2678 13.2363C55.428 13.2723 55.572 13.3167 55.6969 13.3777C55.8218 13.4387 55.925 13.5052 56.0119 13.5773L56.0988 13.6493C56.1612 13.7214 56.2128 13.6355 56.2128 13.4636V11.7117C56.2128 11.5398 56.3513 11.3985 56.5197 11.3985H56.8401C57.0085 11.3985 57.147 11.5398 57.147 11.7117V17.1532C57.147 17.8129 56.259 18.3063 55.2271 18.3673C54.8252 18.3895 54.4613 18.3451 54.1273 18.2342C53.796 18.1261 53.5108 17.9598 53.2718 17.7408C53.0356 17.5218 52.8482 17.2529 52.7179 16.9369ZM53.5597 15.185C53.5081 15.3985 53.4837 15.6147 53.4837 15.842C53.4837 16.1053 53.5244 16.3437 53.6031 16.5544C53.6873 16.7734 53.8041 16.9563 53.9589 17.106C54.1137 17.2557 54.2983 17.3694 54.5102 17.4442C55.2624 17.7131 56.2101 17.3666 56.2101 16.851V15.3818C56.2101 15.1989 56.1803 15.0215 56.1259 14.8524C56.0716 14.6833 55.9874 14.5364 55.8734 14.4116C55.7621 14.2869 55.6208 14.1899 55.4525 14.1178C55.2841 14.0485 55.0859 14.018 54.8605 14.0319C54.6134 14.0485 54.4043 14.1067 54.2332 14.2121C54.0648 14.3174 53.9209 14.4532 53.8068 14.6195C53.6955 14.7859 53.6113 14.9744 53.5597 15.185ZM67.4771 13.2862H64.4628C64.3162 13.2862 64.2646 13.4276 64.2646 13.5773V13.8572C64.2646 14.0069 64.3162 14.1677 64.4628 14.1677H66.3475C66.4425 14.1677 66.4995 14.2592 66.4425 14.3396L64.0473 17.666C63.8736 17.9071 64.0446 18.2315 64.3379 18.2315H67.6862C67.8329 18.2315 67.8981 18.1261 67.8981 17.9737V17.6937C67.8981 17.544 67.8329 17.3472 67.6862 17.3472H65.4676C65.3726 17.3472 65.3155 17.2723 65.3726 17.1947L67.7677 13.86C67.9415 13.6188 67.7704 13.2862 67.4771 13.2862ZM62.3447 18.0568C62.4778 18.0042 62.5457 17.8489 62.4832 17.7159L62.4099 17.3306C62.361 17.2225 62.2415 17.1642 62.1275 17.1975C61.8206 17.2834 61.0765 17.3915 60.7724 17.3943C60.2999 17.4026 59.9116 17.2391 59.7296 17.0229C59.5911 16.8455 59.5151 16.5821 59.5151 16.1774H62.1356C62.5212 16.1774 62.8335 15.8919 62.8335 15.5371V15.0742C62.8335 14.5031 62.6543 14.0097 62.2687 13.6549C61.8831 13.289 61.397 13.1033 60.7642 13.1033C60.1424 13.1033 59.6156 13.2862 59.2191 13.6493C58.8335 14.0042 58.6732 14.4948 58.6732 15.0658V16.3049C58.6732 16.887 58.8335 17.3777 59.2191 17.7325C59.6156 18.0956 60.1424 18.2897 60.7642 18.2897C61.2449 18.2897 61.8695 18.2342 62.3447 18.0568ZM62.008 15.1684C62.008 15.271 61.9401 15.3624 61.8505 15.3624L59.6644 15.3597C59.602 15.3597 59.5531 15.2959 59.5531 15.2238C59.5531 14.3978 59.9224 13.9155 60.8077 13.9155C61.6142 13.9155 62.008 14.3202 62.008 15.1684Z" fill="#E02126"/>
</svg>
