<svg width="70" height="13" viewBox="0 0 70 13" fill="none" xmlns="http://www.w3.org/2000/svg">
<path d="M0 1.6036C0 1.19301 0.153867 0.782423 0.465759 0.472387C1.08538 -0.151876 2.09176 -0.151876 2.71554 0.472387L11.1366 8.95649L19.5577 0.468197C20.1773 -0.156066 21.1837 -0.156066 21.8075 0.468197L30.2286 8.9523L38.6497 0.468197C39.2693 -0.156066 40.2757 -0.156066 40.8994 0.468197L49.3205 8.9523L57.7416 0.468197C58.3612 -0.156066 59.3718 -0.156066 59.9914 0.468197L69.5353 10.0835C70.1549 10.7078 70.1549 11.7259 69.5353 12.3501C68.9157 12.9744 67.9093 12.9744 67.2855 12.3501L58.8644 3.87022L50.4433 12.3501C49.8237 12.9744 48.8173 12.9744 48.1936 12.3501L39.7725 3.87022L31.3514 12.3501C30.7318 12.9744 29.7212 12.9744 29.1016 12.3501L20.6805 3.87022L12.2594 12.3501C11.6398 12.9744 10.6293 12.9744 10.0097 12.3501L0.465759 2.73482C0.153867 2.42059 0 2.01 0 1.6036Z" fill="#E02126"/>
</svg>
